# xmcd CD database file
#
# Track frame offsets:
#	150
#	31740
#	53177
#	91752
#	124889
#	129979
#	145194
#	172376
#	215741
#	217957
#	220361
#	236435
#	255482
#	273867
#	290472
#	304020
#
# Disc length: 4729 seconds
#
# Revision: 0
# Processed by: cddbd v1.5.1PL0 Copyright (c) Steve Scherf et al.
# Submitted via: Feurio! 1.68 - http://www.feurio.com
#
DISCID=ef127710
DTITLE=Colonel Headley and the House Puppets - Greentrail Estate-Talent Expo 
DTITLE=Demo Special Edition
DYEAR=2005
DGENRE=
TTITLE0=Improv Jam 1
TTITLE1=Buddha
TTITLE2=Fire - Strawberry Jam
TTITLE3=Beneath The Stage
TTITLE4=HxC
TTITLE5=Flounder Talks
TTITLE6=Liz
TTITLE7=Locked Myself Out
TTITLE8=Metallica, HA!
TTITLE9=Como
TTITLE10=Open Jam
TTITLE11=Phantasma
TTITLE12=Strawberry Sauce: the Essence of Groove
TTITLE13=Back To The Barn
TTITLE14=Taxi Ride
TTITLE15=Spitting into the Wind
EXTD=The Electric Shoe presents:\r\nColonel Headley and The House 
EXTD=Puppets\r\nFeaturing:\r\nThe Walker Texas Ranger Killer Death Band with 
EXTD=Hootie Sandwich\r\n& Special Appearance by:\r\nFree Lager 
EXTD=Now!\r\n\r\nWalker Texas Ranger joined the Killer Death Band at a young 
EXTD=age. He can unlock mysterious hidden doors with his 88 magical keys of 
EXTD=illustrious renown.\r\nHis accomplice flew a midst a flock of birds with 
EXTD=his friends Quinto (Keen-toe), Conga, and Tumbadora (Toom-ba-door-ra) all 
EXTD=the way from Sri Lanka to be here tonight.\r\nHootie Sandwich evolved 
EXTD=from a rare strand of immaculate, fire breathing mushrooms and spread his 
EXTD=spores all over his bass.\r\nHis name rhymes with Soul and that is what 
EXTD=he adds to the tune's funky Groove Juice. Also, he associates himself 
EXTD=with the comedic homeless.\r\nWhen this kid isn't floundering around, he 
EXTD=likes to experiment with the Weapons of Mass Percussion. Free Lager 
EXTD=Now!\r\nShe likes to chase Hobbits and spends most of her time drifting 
EXTD=on sea waves, making sweet love with octopuses.\r\nThen there is he who 
EXTD=lives with Smacky the Frog and his frog friends. They reside in a 
EXTD=mayonnaise jar with a stick and a leaf to recreate what they're used to. 
EXTD=They are usually flying through space in their 16 ounce world, but came 
EXTD=down to Earth to play some grooves for you all tonight.\r\nSo sip on some 
EXTD=our Funky Groove Juice and let the music move you!\r\n
EXTT0=
EXTT1=
EXTT2=
EXTT3=
EXTT4=
EXTT5=
EXTT6=
EXTT7=
EXTT8=
EXTT9=
EXTT10=
EXTT11=
EXTT12=
EXTT13=
EXTT14=
EXTT15=
PLAYORDER=
